<?xml version="1.0" encoding="UTF-8" standalone="no"?>
<svg
   xmlns:dc="http://purl.org/dc/elements/1.1/"
   xmlns:cc="http://creativecommons.org/ns#"
   xmlns:rdf="http://www.w3.org/1999/02/22-rdf-syntax-ns#"
   xmlns:svg="http://www.w3.org/2000/svg"
   xmlns="http://www.w3.org/2000/svg"
   xmlns:sodipodi="http://sodipodi.sourceforge.net/DTD/sodipodi-0.dtd"
   xmlns:inkscape="http://www.inkscape.org/namespaces/inkscape"
   x="0px"
   y="0px"
   width="234.52"
   height="234.52"
   viewBox="0 0 234.52 234.52"
   xml:space="preserve"
   version="1.1"
   id="svg18"
   sodipodi:docname="dagger.svg"
   inkscape:version="0.92.3 (2405546, 2018-03-11)"><metadata
     id="metadata22"><rdf:RDF><cc:Work
         rdf:about=""><dc:format>image/svg+xml</dc:format><dc:type
           rdf:resource="http://purl.org/dc/dcmitype/StillImage" /><dc:title /></cc:Work></rdf:RDF></metadata><sodipodi:namedview
     pagecolor="#ffffff"
     bordercolor="#666666"
     borderopacity="1"
     objecttolerance="10"
     gridtolerance="10"
     guidetolerance="10"
     inkscape:pageopacity="0"
     inkscape:pageshadow="2"
     inkscape:window-width="1920"
     inkscape:window-height="1017"
     id="namedview20"
     showgrid="false"
     inkscape:zoom="1.0063966"
     inkscape:cx="-200.52055"
     inkscape:cy="117.25"
     inkscape:window-x="-8"
     inkscape:window-y="-8"
     inkscape:window-maximized="1"
     inkscape:current-layer="svg18" /><defs
     id="defs2" /><g
     id="g16"
     transform="translate(12.230002,2.1362305e-6)"
     style="fill:#000000;fill-opacity:1"><path
       d="m 102.64,0 c 1.47,2.38 3.55,4.34 3.88,6.55 1.06,7.18 7.52,10.75 10.34,16.66 0.56,1.16 1.19,2.56 0.97,3.7 -0.1,0.55 -2.06,0.96 -3.22,1.07 -5.22,0.51 -6.52,1.6 -6.55,6.77 -0.04,7.71 0.25,15.43 0.34,23.14 0.03,2.33 1.16,3.53 3.39,3.73 6,0.55 11.99,1.24 18,1.53 3.97,0.19 5.2,1.03 5.43,5.09 0.22,3.92 0.57,7.84 0.51,11.75 -0.03,1.83 -0.9,3.65 -1.39,5.48 -0.43,-0.01 -0.86,-0.02 -1.29,-0.04 -0.35,-1.21 -0.97,-2.42 -0.99,-3.64 -0.13,-7.65 -5.55,-13.36 -13.7,-11.35 -2.3,0.57 -4.81,0.44 -6.99,1.24 -3.35,1.23 -4.15,5.54 -1.46,7.95 2.19,1.96 4.85,3.38 7.29,5.07 0.57,0.39 1.07,0.87 2.34,1.92 -2.04,0.41 -3.41,0.43 -4.51,0.98 -1.41,0.7 -3.31,1.59 -3.74,2.84 -0.71,2.07 -0.66,4.43 1.9,5.92 6.22,3.62 5.78,3.63 4.81,10.64 -1.22,8.77 -1.75,17.63 -2.47,26.47 -0.27,3.25 0.19,6.55 -2.53,9.21 -0.71,0.69 -0.52,2.38 -0.62,3.62 -0.69,9.42 -0.06,18.91 -3.14,28.17 -1.48,4.44 -0.94,9.53 -1.59,14.29 -0.17,1.27 -1.09,3.07 -2.12,3.48 -4.98,2 -5.87,4.19 -3.04,9.4 1.13,-0.67 2.27,-1.34 3.82,-2.25 1.7,3.79 1.05,7.46 0.5,11.12 -0.88,5.95 -1.69,11.9 -2.66,17.84 -0.34,2.09 -1.04,4.11 -1.58,6.17 -0.68,-2.11 -1.73,-4.19 -1.95,-6.34 -0.45,-4.52 0.51,-9.39 -0.83,-13.56 -4.29,-13.39 -0.56,-27.54 -4.32,-40.78 -2.62,-9.23 -1.23,-18.56 -2.36,-27.78 -0.5,-4.05 -2.04,-7.97 -2.74,-12.01 -0.73,-4.21 -1.25,-8.49 -1.44,-12.76 -0.24,-5.52 -0.05,-11.06 -0.03,-16.59 0.01,-2.2 0.35,-3.94 2.64,-5.36 3.47,-2.15 2.08,-8.65 -2.15,-11.15 -1.04,-0.61 -2.17,-1.08 -3.61,-1.78 3.35,-2.03 6.28,-3.79 9.19,-5.58 2.4,-1.48 3.31,-8.09 1.48,-10.69 -1.3,-1.85 -5.8,-2.45 -7.91,-0.28 -3.06,3.14 -5.44,6.93 -8.12,10.44 -1.36,1.78 -2.73,3.55 -4.21,5.47 -3.82,-4.77 -3.64,-16.27 0.1,-19.66 1.56,-1.42 3.89,-2.3 6.01,-2.72 3.58,-0.72 7.25,-1.02 10.9,-1.25 3.33,-0.21 4.51,-1.73 4.61,-5.07 0.18,-6 0.65,-12.01 1.41,-17.96 0.68,-5.28 -1.91,-9.15 -7.18,-9.81 -2.69,-0.34 -3.51,-2.85 -1.62,-5.36 3.31,-4.39 6.29,-8.75 7.23,-14.5 0.53,-3.19 3.09,-6.02 4.97,-9.44 z"
       id="path10"
       inkscape:connector-curvature="0"
       style="fill:#000000;fill-opacity:1" /></g></svg>